<?xml version="1.0" encoding="UTF-8"?>
<svg version="1.1" xmlns="http://www.w3.org/2000/svg" width="800" height="800">
<path d="M0 0 C264 0 528 0 800 0 C800 264 800 528 800 800 C536 800 272 800 0 800 C0 536 0 272 0 0 Z " fill="#56616B" transform="translate(0,0)"/>
<path d="M0 0 C16.17 0 32.34 0 49 0 C52.17040734 7.60897762 55.28591087 15.20108586 58.23046875 22.89453125 C58.61809891 23.90323776 59.00572906 24.91194427 59.40510559 25.95121765 C60.66754745 29.23768339 61.92755131 32.52507773 63.1875 35.8125 C64.08124772 38.14067587 64.97513014 40.46880003 65.86914062 42.796875 C72.3212726 59.6034251 78.75857972 76.41567368 85.19238281 93.22924805 C90.05423862 105.93268339 94.9325138 118.62972899 99.81958008 131.32348633 C102.77541073 139.00128339 105.72595251 146.68111057 108.67616272 154.36106873 C110.66557709 159.53753165 112.6614022 164.71137343 114.66973877 169.88052368 C122.32928038 189.60489212 128.78409226 209.49273541 134 230 C135.39720229 227.36443526 136.40515684 224.88419773 137.15625 222 C139.86367192 211.83488231 142.98834606 201.890205 146.5625 191.99609375 C146.99840454 190.78312119 147.43430908 189.57014862 147.88342285 188.32041931 C152.6168393 175.18244159 157.55075624 162.1203542 162.5 149.0625 C163.49098888 146.44293192 164.48112961 143.82304359 165.47119141 141.203125 C167.02997195 137.07867259 168.58894309 132.95429296 170.14907837 128.83035278 C174.00062178 118.64902818 177.84283789 108.46421434 181.6796875 98.27734375 C182.09557349 97.17316919 182.09557349 97.17316919 182.51986122 96.04668808 C183.63812061 93.07762388 184.75632956 90.10854069 185.87446308 87.13942909 C190.42404867 75.05851027 194.97737691 62.97900135 199.53033447 50.89935303 C200.49196307 48.34799185 201.45351144 45.79660046 202.41497803 43.24517822 C204.92678034 36.57980607 207.43950373 29.9147833 209.9541626 23.25048828 C210.68594011 21.3106875 211.41735208 19.37074879 212.14837646 17.43066406 C213.13046425 14.82448907 214.11386585 12.21881391 215.09765625 9.61328125 C215.38170822 8.85860062 215.66576019 8.10391998 215.9584198 7.32637024 C217.88567966 2.22864067 217.88567966 2.22864067 219 0 C234.84 0 250.68 0 267 0 C267 90.75 267 181.5 267 275 C256.11 275 245.22 275 234 275 C234 197.12 234 119.24 234 39 C231.03 48.9 228.06 58.8 225 69 C220.15492417 83.38940482 214.96847334 97.607368 209.53646851 111.78173828 C208.3224287 114.94968071 207.11253959 118.11918399 205.90356445 121.2890625 C204.60598549 124.69103319 203.30813349 128.09289731 202.00904846 131.49429321 C197.50661403 143.28324713 193.03145859 155.08249957 188.55865479 166.88272095 C186.26248096 172.94031675 183.96514158 178.9974705 181.66796875 185.0546875 C181.20805542 186.26749893 180.74814209 187.48031036 180.27429199 188.72987366 C177.07980359 197.15368963 173.88404658 205.57702354 170.68764687 214.00011444 C169.18459815 217.96100718 167.68171423 221.92196246 166.17882442 225.8829155 C164.98472108 229.02999541 163.79047774 232.17702203 162.59603882 235.32397461 C161.27207561 238.8122297 159.94851474 242.30063723 158.625 245.7890625 C158.21635208 246.86532898 157.80770416 247.94159546 157.38667297 249.05047607 C155.60496409 253.7471487 153.82964958 258.44579747 152.08203125 263.15527344 C151.79956543 263.91544769 151.51709961 264.67562195 151.22607422 265.45883179 C150.50095298 267.41477897 149.77959244 269.37211926 149.05859375 271.32958984 C148 274 148 274 147 275 C145.07332493 275.08748207 143.14348139 275.10697334 141.21484375 275.09765625 C140.16159912 275.09515869 139.10835449 275.09266113 138.02319336 275.09008789 C136.66129536 275.0809239 135.29939761 275.07172138 133.9375 275.0625 C131.62964033 275.05101203 129.32177885 275.03988574 127.01391602 275.02905273 C124.00695801 275.01452637 124.00695801 275.01452637 121 275 C114.39872161 258.61597014 107.94323541 242.18257409 101.625 225.6875 C100.75856111 223.42937469 99.89193867 221.1713198 99.02514648 218.91333008 C97.23502257 214.24976251 95.44567017 209.58589994 93.65673828 204.921875 C90.69776385 197.20973334 87.72981535 189.50105907 84.76074219 181.7928009 C81.45032822 173.19757206 78.14707545 164.5996055 74.84570312 156.00090027 C72.20214956 149.11882828 69.54737121 142.24118098 66.88682556 135.36566162 C54.56177313 103.49575327 43.19231389 71.61540444 33 39 C33 116.88 33 194.76 33 275 C22.11 275 11.22 275 0 275 C0 184.25 0 93.5 0 0 Z " fill="#E2DFDC" transform="translate(278,264)"/>
<path d="M0 0 C0.79832245 0.00087616 1.5966449 0.00175232 2.41915894 0.00265503 C30.71338014 0.10427722 62.38574044 3.74684655 83.9140625 24.109375 C90.51923128 31.07482571 95.38435118 38.44758032 99.5 47.0625 C99.83008057 47.75077881 100.16016113 48.43905762 100.50024414 49.14819336 C102.75652681 54.10634945 104.0663211 59.02647733 105.0625 64.375 C100.75848263 65.09322765 96.45347392 65.80509046 92.14746094 66.51123047 C90.68461144 66.75202209 89.22204017 66.99451067 87.75976562 67.23876953 C85.65045986 67.59079944 83.54020861 67.93659087 81.4296875 68.28125 C80.16237793 68.49072266 78.89506836 68.70019531 77.58935547 68.91601562 C74.3611802 69.33612981 71.3122202 69.46247564 68.0625 69.375 C67.71058594 68.46878906 67.35867188 67.56257813 66.99609375 66.62890625 C63.89696574 58.98223269 60.76439268 52.48146156 55.0625 46.375 C54.29873047 45.54935547 54.29873047 45.54935547 53.51953125 44.70703125 C36.77131936 28.62047712 9.50297391 28.72118461 -12.07485962 29.13346863 C-24.85798576 29.49758567 -37.76851798 31.90676799 -48.9375 38.375 C-49.74445313 38.8390625 -50.55140625 39.303125 -51.3828125 39.78125 C-58.92997384 44.46397717 -65.1437121 50.61967111 -67.48828125 59.44921875 C-69.0107737 69.36527825 -69.99932416 81.68200527 -64.4609375 90.41796875 C-63.95820312 91.06378906 -63.45546875 91.70960938 -62.9375 92.375 C-62.47601562 92.98988281 -62.01453125 93.60476563 -61.5390625 94.23828125 C-52.91229899 104.11307907 -39.14922628 108.93623421 -26.9375 112.375 C-25.90061035 112.66987305 -25.90061035 112.66987305 -24.84277344 112.97070312 C-14.98837223 115.73794355 -5.03604079 118.08126795 4.9375 120.375 C6.04762451 120.63031494 7.15774902 120.88562988 8.30151367 121.14868164 C13.37944622 122.31262977 18.4594275 123.46431023 23.546875 124.5859375 C46.01735194 129.61859723 69.46316653 136.22008558 88.0625 150.375 C88.74570312 150.89449219 89.42890625 151.41398438 90.1328125 151.94921875 C102.07260413 161.68718569 109.0101611 176.18042419 111.75 191.125 C113.77945965 212.18064384 110.10980873 232.36922635 97.0625 249.375 C78.35944577 271.57018644 48.06310175 280.20328488 20.13574219 282.80615234 C-17.47970967 285.74176723 -60.54650511 284.31117666 -91.30078125 259.640625 C-105.53666919 247.40830647 -113.79589843 233.36934959 -118.9375 215.375 C-118.9375 214.715 -118.9375 214.055 -118.9375 213.375 C-114.15109168 212.37429886 -109.36389608 211.37748759 -104.57592773 210.38427734 C-102.94712435 210.04582891 -101.3185415 209.70631731 -99.69018555 209.36572266 C-97.35001839 208.87643443 -95.00908559 208.3909711 -92.66796875 207.90625 C-91.93974411 207.75313354 -91.21151947 207.60001709 -90.46122742 207.44226074 C-87.56039246 206.84483114 -84.90839431 206.375 -81.9375 206.375 C-81.55271484 207.66470703 -81.55271484 207.66470703 -81.16015625 208.98046875 C-76.49891272 223.37225434 -69.19388929 234.46908108 -55.9375 242.375 C-28.34239811 256.41948698 8.66757267 257.86713756 38.12890625 248.8984375 C51.57253588 244.46584207 63.26485598 238.39766042 70.0625 225.375 C74.8369337 214.33412206 76.14322942 202.11023569 72.09765625 190.61328125 C70.28733344 186.69888513 67.96072293 183.55240954 65.0625 180.375 C64.25039063 179.48167969 64.25039063 179.48167969 63.421875 178.5703125 C45.22757113 160.77153697 11.65840314 157.73655126 -12.06420898 152.54589844 C-48.03108691 144.60145445 -48.03108691 144.60145445 -64.125 136.5 C-64.98174316 136.08000732 -65.83848633 135.66001465 -66.72119141 135.22729492 C-73.77086272 131.6704335 -79.96811212 127.57605082 -85.9375 122.375 C-86.59492187 121.83875 -87.25234375 121.3025 -87.9296875 120.75 C-98.38073565 111.46017942 -105.21718108 95.09181183 -106.06225586 81.34570312 C-106.76288666 61.49231441 -103.32102898 44.13008389 -90.08984375 28.61328125 C-77.64075011 15.66712761 -61.48569555 8.16454886 -44.1875 4.1875 C-43.18952393 3.9551062 -43.18952393 3.9551062 -42.17138672 3.71801758 C-28.26709611 0.73899007 -14.17673315 -0.03847575 0 0 Z " fill="#E1DEDC" transform="translate(670.9375,259.625)"/>
<path d="M0 0 C1.30453125 0.02964844 2.6090625 0.05929687 3.953125 0.08984375 C34.89487056 1.46279999 65.56948116 12.97519064 86.8203125 35.98046875 C106 58.1808104 106 58.1808104 106 69 C94.45 72.63 82.9 76.26 71 80 C69.741875 77.6075 68.48375 75.215 67.1875 72.75 C56.4808599 53.27543608 39.70387748 40.92436006 18.5625 34.625 C8.96646581 31.96905792 -0.28859738 31.81757376 -10.1875 31.8125 C-11.42564453 31.80025391 -12.66378906 31.78800781 -13.93945312 31.77539062 C-37.88396147 31.73776175 -59.17909603 38.44508185 -76.38671875 55.35546875 C-77.68029297 56.66451172 -77.68029297 56.66451172 -79 58 C-79.66644531 58.65613281 -80.33289063 59.31226563 -81.01953125 59.98828125 C-102.54155682 82.67628563 -106.72503055 116.50466792 -106.23828125 146.25 C-105.33014847 178.03017379 -94.84336083 208.23305687 -71.50390625 230.3671875 C-53.58617034 245.4898743 -32.48557837 251.40866053 -9.3125 251.375 C-8.65014343 251.37412384 -7.98778687 251.37324768 -7.30535889 251.37234497 C3.11666358 251.32690056 12.21274427 250.66478353 22 247 C22.65033203 246.76394043 23.30066406 246.52788086 23.97070312 246.28466797 C49.35271394 236.88459663 65.19920241 218.14316385 78 195 C98.4135118 204.50661912 98.4135118 204.50661912 108 210 C107.43757133 214.68690559 105.36546514 218.2373547 102.9375 222.1875 C102.53265381 222.85168945 102.12780762 223.51587891 101.71069336 224.20019531 C98.21492418 229.83549269 94.346256 234.98824922 90 240 C89.28714844 240.86882812 88.57429687 241.73765625 87.83984375 242.6328125 C67.14797039 266.88272084 36.1475242 279.53799406 5 283 C0.38725389 283.23112623 -4.21180934 283.28942484 -8.82861328 283.26074219 C-10.86651594 283.25004454 -12.90353041 283.26069771 -14.94140625 283.2734375 C-27.78933258 283.28899961 -40.34747261 281.86578351 -52.75 278.4375 C-53.67538574 278.18210449 -54.60077148 277.92670898 -55.55419922 277.66357422 C-74.41713526 272.17892678 -90.85545157 262.60139777 -105 249 C-105.85722656 248.19433594 -106.71445313 247.38867188 -107.59765625 246.55859375 C-130.09265293 224.87789559 -140.14609886 194.29814616 -144 164 C-144.13277344 163.00226563 -144.26554687 162.00453125 -144.40234375 160.9765625 C-147.68279485 130.32906041 -144.54817387 96.96919929 -131 69 C-130.42636719 67.81277344 -129.85273438 66.62554687 -129.26171875 65.40234375 C-115.38029862 37.63238664 -91.60930642 17.36649166 -62.375 7.1875 C-41.92325116 0.83231631 -21.29243763 -0.55916865 0 0 Z " fill="#E1DEDC" transform="translate(165,260)"/>
</svg>
